<?xml version="1.0" encoding="UTF-8"?>
<svg xmlns="http://www.w3.org/2000/svg" xmlns:xlink="http://www.w3.org/1999/xlink" width="52px" height="52px" viewBox="0 0 52 52" version="1.1">
<g id="surface1">
<path style=" stroke:none;fill-rule:nonzero;fill:rgb(18.431373%,6.666667%,37.64706%);fill-opacity:1;" d="M 26.40625 4.773438 C 26.652344 4.90625 26.894531 5.046875 27.136719 5.191406 C 27.289062 5.289062 27.445312 5.375 27.601562 5.472656 C 27.6875 5.523438 27.769531 5.574219 27.859375 5.625 C 28.367188 5.929688 28.882812 6.21875 29.394531 6.519531 C 29.625 6.652344 29.851562 6.78125 30.082031 6.914062 C 30.195312 6.984375 30.308594 7.046875 30.429688 7.117188 C 30.984375 7.433594 31.542969 7.757812 32.09375 8.074219 C 32.316406 8.203125 32.53125 8.328125 32.753906 8.453125 C 33.191406 8.710938 33.636719 8.960938 34.074219 9.21875 C 34.183594 9.28125 34.289062 9.34375 34.40625 9.40625 C 34.625 9.535156 34.84375 9.660156 35.0625 9.789062 C 35.617188 10.105469 36.167969 10.421875 36.722656 10.746094 C 37.78125 11.355469 38.839844 11.972656 39.902344 12.585938 C 40.941406 13.195312 41.996094 13.800781 43.042969 14.398438 C 43.15625 14.460938 43.273438 14.53125 43.390625 14.59375 C 43.492188 14.648438 43.589844 14.707031 43.695312 14.769531 C 43.785156 14.820312 43.882812 14.871094 43.976562 14.929688 C 44.066406 14.96875 44.15625 15 44.242188 15.039062 C 44.484375 15.234375 44.484375 15.234375 44.546875 15.609375 C 44.546875 15.765625 44.546875 15.925781 44.546875 16.089844 C 44.546875 16.171875 44.546875 16.261719 44.546875 16.359375 C 44.546875 16.648438 44.546875 16.949219 44.542969 17.246094 C 44.542969 17.457031 44.542969 17.671875 44.542969 17.882812 C 44.542969 18.460938 44.542969 19.035156 44.535156 19.613281 C 44.535156 20.21875 44.535156 20.820312 44.527344 21.421875 C 44.527344 22.558594 44.527344 23.703125 44.523438 24.84375 C 44.515625 26.144531 44.507812 27.445312 44.507812 28.742188 C 44.503906 31.421875 44.496094 34.09375 44.484375 36.765625 C 44.433594 36.796875 44.382812 36.824219 44.324219 36.855469 C 44.085938 36.988281 43.851562 37.121094 43.609375 37.25 C 43.527344 37.296875 43.445312 37.34375 43.359375 37.386719 C 42.734375 37.738281 42.109375 38.097656 41.488281 38.460938 C 41.277344 38.582031 41.070312 38.707031 40.859375 38.828125 C 40.757812 38.886719 40.648438 38.949219 40.542969 39.011719 C 39.996094 39.328125 39.457031 39.648438 38.910156 39.957031 C 38.804688 40.023438 38.6875 40.085938 38.582031 40.148438 C 38.359375 40.277344 38.136719 40.410156 37.914062 40.535156 C 37.363281 40.851562 36.808594 41.171875 36.257812 41.488281 C 36.035156 41.617188 35.820312 41.742188 35.597656 41.867188 C 35.488281 41.933594 35.382812 41.996094 35.265625 42.058594 C 34.054688 42.757812 32.847656 43.457031 31.636719 44.15625 C 31.472656 44.25 31.472656 44.25 31.304688 44.34375 C 31.085938 44.472656 30.867188 44.597656 30.652344 44.726562 C 30.140625 45.015625 29.632812 45.316406 29.117188 45.609375 C 28.9375 45.710938 28.753906 45.816406 28.578125 45.917969 C 28.347656 46.050781 28.125 46.179688 27.898438 46.3125 C 27.703125 46.425781 27.5 46.539062 27.296875 46.660156 C 27.109375 46.761719 26.933594 46.871094 26.761719 46.984375 C 26.183594 47.335938 26.183594 47.335938 25.808594 47.296875 C 25.332031 47.035156 24.863281 46.777344 24.398438 46.496094 C 24.179688 46.371094 23.960938 46.234375 23.738281 46.109375 C 23.625 46.039062 23.511719 45.976562 23.398438 45.90625 C 22.851562 45.582031 22.300781 45.265625 21.746094 44.949219 C 21.523438 44.820312 21.300781 44.695312 21.082031 44.566406 C 20.972656 44.503906 20.859375 44.441406 20.75 44.371094 C 20.199219 44.054688 19.644531 43.734375 19.09375 43.417969 C 18.871094 43.289062 18.65625 43.164062 18.433594 43.039062 C 17.113281 42.273438 15.792969 41.515625 14.472656 40.75 C 14.308594 40.65625 14.308594 40.65625 14.140625 40.5625 C 13.921875 40.433594 13.703125 40.308594 13.480469 40.179688 C 12.929688 39.863281 12.371094 39.539062 11.820312 39.222656 C 10.734375 38.601562 9.65625 37.972656 8.574219 37.335938 C 8.480469 37.28125 8.386719 37.222656 8.285156 37.164062 C 8.203125 37.113281 8.113281 37.0625 8.023438 37.011719 C 7.910156 36.945312 7.910156 36.945312 7.796875 36.875 C 7.617188 36.765625 7.617188 36.765625 7.515625 36.664062 C 7.503906 36.390625 7.496094 36.117188 7.496094 35.84375 C 7.496094 35.761719 7.492188 35.671875 7.492188 35.585938 C 7.492188 35.292969 7.484375 35 7.484375 34.710938 C 7.484375 34.5 7.476562 34.289062 7.476562 34.082031 C 7.457031 32.171875 7.445312 30.265625 7.4375 28.355469 C 7.433594 26.945312 7.421875 25.53125 7.40625 24.121094 C 7.394531 23.128906 7.390625 22.140625 7.390625 21.144531 C 7.390625 20.554688 7.382812 19.964844 7.375 19.367188 C 7.363281 18.808594 7.363281 18.253906 7.363281 17.695312 C 7.363281 17.488281 7.363281 17.285156 7.355469 17.082031 C 7.324219 15.824219 7.324219 15.824219 7.515625 15.335938 C 7.914062 14.921875 8.304688 14.738281 8.835938 14.523438 C 9.058594 14.398438 9.273438 14.269531 9.496094 14.140625 C 9.71875 14.015625 9.945312 13.882812 10.175781 13.753906 C 10.429688 13.617188 10.675781 13.46875 10.929688 13.328125 C 10.988281 13.292969 11.050781 13.253906 11.121094 13.214844 C 11.75 12.859375 12.382812 12.492188 13.011719 12.128906 C 13.121094 12.066406 13.226562 12.003906 13.34375 11.941406 C 13.558594 11.8125 13.773438 11.691406 13.996094 11.566406 C 14.542969 11.25 15.089844 10.929688 15.640625 10.613281 C 15.863281 10.484375 16.078125 10.359375 16.300781 10.234375 C 17.621094 9.46875 17.621094 9.46875 17.949219 9.28125 C 18.171875 9.152344 18.390625 9.027344 18.609375 8.898438 C 19.164062 8.582031 19.714844 8.265625 20.269531 7.941406 C 21.554688 7.203125 22.839844 6.457031 24.121094 5.710938 C 24.210938 5.65625 24.296875 5.605469 24.394531 5.546875 C 24.597656 5.425781 24.800781 5.304688 25.003906 5.179688 C 25.109375 5.117188 25.21875 5.046875 25.328125 4.976562 C 25.421875 4.917969 25.523438 4.855469 25.617188 4.792969 C 25.941406 4.652344 26.078125 4.660156 26.40625 4.773438 Z M 26.40625 4.773438 "/>
<path style=" stroke:none;fill-rule:nonzero;fill:rgb(10.196079%,10.196079%,10.196079%);fill-opacity:1;" d="M 26 4.671875 C 26.375 4.824219 26.699219 4.96875 27.054688 5.167969 C 27.15625 5.230469 27.261719 5.289062 27.363281 5.34375 C 27.480469 5.40625 27.585938 5.472656 27.703125 5.535156 C 27.816406 5.597656 27.929688 5.664062 28.050781 5.730469 C 28.734375 6.117188 29.421875 6.511719 30.105469 6.917969 C 30.75 7.300781 31.390625 7.667969 32.035156 8.042969 C 32.152344 8.105469 32.257812 8.167969 32.378906 8.238281 C 32.609375 8.371094 32.835938 8.507812 33.070312 8.640625 C 33.625 8.957031 34.183594 9.28125 34.734375 9.597656 C 35.394531 9.976562 36.0625 10.359375 36.722656 10.746094 C 37.78125 11.355469 38.839844 11.972656 39.902344 12.585938 C 40.941406 13.195312 41.996094 13.800781 43.042969 14.398438 C 43.15625 14.460938 43.273438 14.53125 43.390625 14.59375 C 43.492188 14.648438 43.589844 14.707031 43.695312 14.769531 C 43.785156 14.820312 43.882812 14.871094 43.976562 14.929688 C 44.109375 14.988281 44.109375 14.988281 44.242188 15.039062 C 44.484375 15.234375 44.484375 15.234375 44.546875 15.601562 C 44.546875 15.761719 44.546875 15.917969 44.546875 16.078125 C 44.546875 16.210938 44.546875 16.210938 44.546875 16.34375 C 44.546875 16.636719 44.546875 16.933594 44.542969 17.226562 C 44.542969 17.4375 44.542969 17.648438 44.542969 17.855469 C 44.542969 18.425781 44.542969 19 44.535156 19.570312 C 44.535156 20.167969 44.535156 20.761719 44.527344 21.359375 C 44.527344 22.496094 44.527344 23.625 44.523438 24.753906 C 44.515625 26.042969 44.507812 27.332031 44.507812 28.617188 C 44.503906 31.269531 44.496094 33.914062 44.484375 36.5625 C 44.140625 36.429688 43.824219 36.28125 43.5 36.097656 C 43.410156 36.046875 43.316406 35.996094 43.226562 35.945312 C 43.125 35.890625 43.03125 35.832031 42.929688 35.773438 C 42.777344 35.6875 42.777344 35.6875 42.617188 35.597656 C 41.792969 35.128906 40.96875 34.652344 40.148438 34.167969 C 39.363281 33.710938 38.574219 33.253906 37.78125 32.804688 C 36.789062 32.238281 35.808594 31.675781 34.828125 31.097656 C 33.761719 30.476562 32.691406 29.859375 31.617188 29.238281 C 31.066406 28.921875 30.511719 28.601562 29.960938 28.285156 C 29.523438 28.03125 29.089844 27.785156 28.640625 27.523438 C 27.769531 27.023438 26.894531 26.519531 26 26 C 26 18.960938 26 11.921875 26 4.671875 Z M 26 4.671875 "/>
<path style=" stroke:none;fill-rule:nonzero;fill:rgb(32.941177%,32.941177%,33.333334%);fill-opacity:1;" d="M 26 4.671875 C 26.03125 7.4375 26.058594 10.207031 26.070312 12.976562 C 26.078125 14.257812 26.082031 15.539062 26.101562 16.828125 C 26.113281 17.945312 26.121094 19.066406 26.125 20.183594 C 26.125 20.777344 26.125 21.371094 26.140625 21.960938 C 26.144531 22.523438 26.152344 23.078125 26.152344 23.636719 C 26.152344 23.839844 26.152344 24.050781 26.160156 24.253906 C 26.183594 25.511719 26.183594 25.511719 26 26 C 25.601562 26.414062 25.210938 26.597656 24.679688 26.8125 C 24.457031 26.9375 24.242188 27.066406 24.019531 27.195312 C 23.796875 27.320312 23.570312 27.453125 23.339844 27.582031 C 23.085938 27.71875 22.839844 27.867188 22.585938 28.007812 C 22.527344 28.042969 22.464844 28.082031 22.394531 28.121094 C 21.765625 28.476562 21.132812 28.84375 20.503906 29.207031 C 20.394531 29.269531 20.285156 29.332031 20.171875 29.394531 C 19.957031 29.523438 19.742188 29.644531 19.519531 29.769531 C 18.972656 30.085938 18.425781 30.40625 17.875 30.722656 C 17.652344 30.851562 17.4375 30.976562 17.214844 31.101562 C 13.253906 33.390625 13.253906 33.390625 12.921875 33.578125 C 12.703125 33.707031 12.484375 33.832031 12.269531 33.960938 C 11.757812 34.25 11.242188 34.550781 10.734375 34.84375 C 10.550781 34.945312 10.371094 35.050781 10.1875 35.152344 C 9.960938 35.285156 9.738281 35.414062 9.507812 35.546875 C 8.996094 35.84375 8.480469 36.144531 7.984375 36.472656 C 7.820312 36.5625 7.820312 36.5625 7.515625 36.5625 C 7.484375 33.808594 7.457031 31.054688 7.445312 28.304688 C 7.4375 27.023438 7.433594 25.746094 7.414062 24.464844 C 7.402344 23.351562 7.394531 22.234375 7.390625 21.125 C 7.390625 20.535156 7.390625 19.945312 7.375 19.355469 C 7.371094 18.796875 7.363281 18.242188 7.363281 17.683594 C 7.363281 17.480469 7.363281 17.277344 7.355469 17.074219 C 7.332031 15.816406 7.332031 15.816406 7.515625 15.335938 C 7.914062 14.921875 8.304688 14.738281 8.835938 14.523438 C 9.058594 14.398438 9.273438 14.269531 9.496094 14.140625 C 9.71875 14.015625 9.945312 13.882812 10.175781 13.753906 C 10.429688 13.617188 10.675781 13.46875 10.929688 13.328125 C 10.988281 13.292969 11.050781 13.253906 11.121094 13.214844 C 11.75 12.859375 12.382812 12.492188 13.011719 12.128906 C 13.121094 12.066406 13.226562 12.003906 13.34375 11.941406 C 13.558594 11.8125 13.773438 11.691406 13.996094 11.566406 C 14.542969 11.25 15.089844 10.929688 15.640625 10.613281 C 15.863281 10.484375 16.078125 10.359375 16.300781 10.234375 C 17.621094 9.46875 17.621094 9.46875 17.949219 9.28125 C 18.171875 9.152344 18.390625 9.027344 18.609375 8.898438 C 19.164062 8.582031 19.714844 8.265625 20.269531 7.941406 C 21.554688 7.203125 22.839844 6.457031 24.121094 5.710938 C 24.253906 5.628906 24.253906 5.628906 24.394531 5.546875 C 24.601562 5.425781 24.804688 5.304688 25.015625 5.1875 C 25.128906 5.117188 25.238281 5.054688 25.351562 4.988281 C 25.453125 4.925781 25.554688 4.867188 25.664062 4.804688 C 25.898438 4.671875 25.898438 4.671875 26 4.671875 Z M 26 4.671875 "/>
<path style=" stroke:none;fill-rule:nonzero;fill:rgb(33.333334%,13.725491%,63.529414%);fill-opacity:1;" d="M 26 26 C 26 33.039062 26 40.078125 26 47.328125 C 25.195312 46.929688 24.417969 46.523438 23.652344 46.066406 C 23.433594 45.9375 23.226562 45.8125 23.011719 45.691406 C 22.84375 45.589844 22.84375 45.589844 22.671875 45.492188 C 22.132812 45.171875 21.582031 44.859375 21.035156 44.542969 C 20.871094 44.445312 20.871094 44.445312 20.707031 44.351562 C 20.484375 44.222656 20.261719 44.089844 20.039062 43.964844 C 19.488281 43.648438 18.933594 43.328125 18.382812 43.011719 C 18.160156 42.882812 17.945312 42.757812 17.722656 42.632812 C 17.0625 42.25 17.0625 42.25 16.402344 41.867188 C 16.292969 41.804688 16.1875 41.742188 16.070312 41.679688 C 15.851562 41.550781 15.632812 41.425781 15.410156 41.296875 C 14.859375 40.980469 14.308594 40.664062 13.753906 40.339844 C 12.371094 39.546875 10.992188 38.746094 9.625 37.945312 C 9.351562 37.789062 9.082031 37.628906 8.8125 37.476562 C 8.652344 37.382812 8.492188 37.292969 8.335938 37.195312 C 8.265625 37.152344 8.1875 37.113281 8.117188 37.070312 C 7.628906 36.789062 7.628906 36.789062 7.515625 36.5625 C 7.585938 36.523438 7.648438 36.484375 7.71875 36.449219 C 8.390625 36.085938 9.058594 35.71875 9.71875 35.34375 C 9.871094 35.261719 9.871094 35.261719 10.023438 35.171875 C 10.835938 34.710938 11.648438 34.238281 12.460938 33.761719 C 13.246094 33.304688 14.035156 32.847656 14.828125 32.398438 C 15.816406 31.832031 16.800781 31.269531 17.78125 30.691406 C 18.847656 30.070312 19.917969 29.453125 20.992188 28.835938 C 21.449219 28.570312 21.898438 28.3125 22.355469 28.050781 C 22.578125 27.917969 22.800781 27.789062 23.023438 27.664062 C 23.535156 27.363281 24.050781 27.074219 24.558594 26.773438 C 24.648438 26.722656 24.742188 26.667969 24.832031 26.617188 C 25.003906 26.515625 25.167969 26.417969 25.339844 26.316406 C 25.886719 26 25.886719 26 26 26 Z M 26 26 "/>
<path style=" stroke:none;fill-rule:nonzero;fill:rgb(17.254902%,17.254902%,17.254902%);fill-opacity:1;" d="M 26 4.671875 C 26.375 4.824219 26.699219 4.96875 27.054688 5.167969 C 27.15625 5.230469 27.261719 5.289062 27.363281 5.34375 C 27.480469 5.40625 27.585938 5.472656 27.703125 5.535156 C 27.816406 5.597656 27.929688 5.664062 28.050781 5.730469 C 28.734375 6.117188 29.421875 6.511719 30.105469 6.917969 C 30.75 7.300781 31.390625 7.667969 32.035156 8.042969 C 32.152344 8.105469 32.257812 8.167969 32.378906 8.238281 C 32.609375 8.371094 32.835938 8.507812 33.070312 8.640625 C 33.625 8.957031 34.183594 9.28125 34.734375 9.597656 C 35.394531 9.976562 36.0625 10.359375 36.722656 10.746094 C 37.882812 11.414062 39.039062 12.085938 40.195312 12.757812 C 41.144531 13.316406 42.105469 13.863281 43.0625 14.410156 C 43.175781 14.472656 43.289062 14.535156 43.410156 14.605469 C 43.511719 14.664062 43.613281 14.71875 43.722656 14.777344 C 43.914062 14.890625 44.097656 15.011719 44.28125 15.132812 C 44.28125 15.234375 44.28125 15.335938 44.28125 15.4375 C 44.171875 15.5 44.171875 15.5 44.058594 15.5625 C 42.414062 16.503906 40.765625 17.449219 39.121094 18.394531 C 38.574219 18.710938 38.027344 19.03125 37.476562 19.347656 C 37.253906 19.472656 37.039062 19.601562 36.816406 19.726562 C 32.855469 22.011719 32.855469 22.011719 32.523438 22.203125 C 32.304688 22.332031 32.085938 22.457031 31.867188 22.585938 C 31.304688 22.910156 30.75 23.226562 30.1875 23.550781 C 30.074219 23.613281 29.96875 23.683594 29.847656 23.746094 C 29.625 23.878906 29.402344 24.007812 29.179688 24.132812 C 28.664062 24.425781 28.15625 24.722656 27.644531 25.023438 C 27.554688 25.074219 27.464844 25.128906 27.371094 25.179688 C 27.207031 25.28125 27.039062 25.378906 26.875 25.480469 C 26.328125 25.796875 26.328125 25.796875 26.101562 25.796875 C 26.050781 25.898438 26.050781 25.898438 26 26 C 26 18.960938 26 11.921875 26 4.671875 Z M 26 4.671875 "/>
<path style=" stroke:none;fill-rule:nonzero;fill:rgb(26.666668%,26.666668%,26.666668%);fill-opacity:1;" d="M 26 4.671875 C 26 11.679688 26 18.679688 26 25.898438 C 24.855469 25.328125 24.855469 25.328125 24.445312 25.085938 C 24.347656 25.027344 24.261719 24.972656 24.164062 24.921875 C 24.0625 24.855469 23.96875 24.800781 23.867188 24.742188 C 23.652344 24.617188 23.433594 24.488281 23.21875 24.363281 C 23.105469 24.296875 22.996094 24.234375 22.882812 24.164062 C 22.335938 23.847656 21.785156 23.53125 21.238281 23.214844 C 21.132812 23.148438 21.015625 23.085938 20.910156 23.023438 C 20.6875 22.894531 20.464844 22.761719 20.242188 22.636719 C 19.691406 22.316406 19.136719 22 18.585938 21.683594 C 18.363281 21.554688 18.148438 21.429688 17.925781 21.300781 C 16.605469 20.539062 15.285156 19.777344 13.964844 19.015625 C 13.800781 18.921875 13.800781 18.921875 13.632812 18.828125 C 13.414062 18.699219 13.195312 18.574219 12.976562 18.445312 C 12.414062 18.121094 11.851562 17.796875 11.285156 17.476562 C 10.734375 17.15625 10.179688 16.839844 9.628906 16.515625 C 9.367188 16.363281 9.101562 16.210938 8.84375 16.066406 C 8.695312 15.984375 8.554688 15.902344 8.417969 15.816406 C 8.351562 15.78125 8.289062 15.75 8.226562 15.710938 C 8.0625 15.613281 8.0625 15.613281 7.820312 15.4375 C 7.820312 15.335938 7.820312 15.234375 7.820312 15.132812 C 8.003906 14.992188 8.003906 14.992188 8.257812 14.847656 C 8.359375 14.789062 8.453125 14.734375 8.550781 14.675781 C 8.65625 14.617188 8.765625 14.5625 8.875 14.496094 C 8.980469 14.433594 9.097656 14.371094 9.203125 14.308594 C 9.4375 14.175781 9.671875 14.039062 9.902344 13.914062 C 10.351562 13.660156 10.796875 13.398438 11.242188 13.144531 C 11.570312 12.957031 11.902344 12.765625 12.230469 12.574219 C 12.890625 12.1875 13.558594 11.804688 14.21875 11.425781 C 14.441406 11.296875 14.65625 11.171875 14.878906 11.046875 C 14.988281 10.980469 15.09375 10.917969 15.210938 10.855469 C 18.839844 8.757812 18.839844 8.757812 19.167969 8.570312 C 19.390625 8.441406 19.609375 8.316406 19.828125 8.1875 C 20.382812 7.871094 20.933594 7.554688 21.488281 7.230469 C 21.710938 7.101562 21.929688 6.976562 22.152344 6.847656 C 22.261719 6.785156 22.367188 6.722656 22.476562 6.660156 C 23.042969 6.335938 23.605469 6.011719 24.164062 5.679688 C 24.28125 5.617188 24.394531 5.546875 24.507812 5.484375 C 24.722656 5.355469 24.941406 5.230469 25.15625 5.097656 C 25.25 5.046875 25.347656 4.988281 25.449219 4.933594 C 25.574219 4.855469 25.574219 4.855469 25.707031 4.78125 C 25.898438 4.671875 25.898438 4.671875 26 4.671875 Z M 26 4.671875 "/>
</g>
</svg>
