<?xml version="1.0" encoding="UTF-8"?>
<svg xmlns="http://www.w3.org/2000/svg" xmlns:xlink="http://www.w3.org/1999/xlink" width="100px" height="100px" viewBox="0 0 100 100" version="1.1">
<g id="surface1">
<path style=" stroke:none;fill-rule:nonzero;fill:rgb(18.431373%,6.666667%,37.64706%);fill-opacity:1;" d="M 50.78125 9.179688 C 51.253906 9.433594 51.71875 9.707031 52.1875 9.984375 C 52.480469 10.171875 52.78125 10.335938 53.078125 10.523438 C 53.246094 10.621094 53.402344 10.71875 53.574219 10.816406 C 54.550781 11.402344 55.542969 11.960938 56.527344 12.539062 C 56.972656 12.792969 57.40625 13.039062 57.851562 13.296875 C 58.066406 13.429688 58.285156 13.550781 58.519531 13.6875 C 59.585938 14.296875 60.660156 14.917969 61.71875 15.527344 C 62.148438 15.773438 62.558594 16.015625 62.988281 16.257812 C 63.828125 16.75 64.6875 17.234375 65.527344 17.726562 C 65.738281 17.847656 65.941406 17.96875 66.164062 18.089844 C 66.585938 18.335938 67.007812 18.578125 67.429688 18.824219 C 68.496094 19.433594 69.554688 20.042969 70.621094 20.664062 C 72.65625 21.835938 74.691406 23.023438 76.734375 24.203125 C 78.734375 25.375 80.761719 26.539062 82.773438 27.6875 C 82.992188 27.808594 83.21875 27.945312 83.445312 28.066406 C 83.640625 28.171875 83.828125 28.28125 84.03125 28.402344 C 84.203125 28.5 84.390625 28.597656 84.570312 28.710938 C 84.742188 28.785156 84.914062 28.847656 85.082031 28.921875 C 85.546875 29.296875 85.546875 29.296875 85.667969 30.019531 C 85.667969 30.320312 85.667969 30.625 85.667969 30.941406 C 85.667969 31.101562 85.667969 31.273438 85.667969 31.460938 C 85.667969 32.015625 85.667969 32.59375 85.660156 33.164062 C 85.660156 33.570312 85.660156 33.984375 85.660156 34.390625 C 85.660156 35.5 85.660156 36.605469 85.644531 37.71875 C 85.644531 38.882812 85.644531 40.039062 85.628906 41.195312 C 85.628906 43.382812 85.628906 45.582031 85.621094 47.777344 C 85.605469 50.277344 85.59375 52.78125 85.59375 55.273438 C 85.585938 60.425781 85.570312 65.566406 85.546875 70.703125 C 85.449219 70.761719 85.351562 70.816406 85.238281 70.875 C 84.78125 71.132812 84.328125 71.386719 83.863281 71.632812 C 83.707031 71.726562 83.546875 71.816406 83.382812 71.898438 C 82.179688 72.574219 80.980469 73.265625 79.785156 73.964844 C 79.378906 74.195312 78.980469 74.4375 78.574219 74.667969 C 78.378906 74.78125 78.171875 74.902344 77.96875 75.023438 C 76.914062 75.632812 75.878906 76.246094 74.828125 76.839844 C 74.625 76.96875 74.398438 77.089844 74.195312 77.207031 C 73.769531 77.457031 73.339844 77.710938 72.910156 77.953125 C 71.851562 78.5625 70.785156 79.175781 69.726562 79.785156 C 69.296875 80.03125 68.886719 80.273438 68.457031 80.515625 C 68.246094 80.640625 68.042969 80.761719 67.820312 80.882812 C 65.488281 82.226562 63.167969 83.570312 60.839844 84.914062 C 60.523438 85.097656 60.523438 85.097656 60.203125 85.277344 C 59.78125 85.523438 59.359375 85.765625 58.945312 86.011719 C 57.960938 86.570312 56.984375 87.148438 55.996094 87.710938 C 55.648438 87.90625 55.296875 88.109375 54.957031 88.304688 C 54.515625 88.558594 54.085938 88.808594 53.652344 89.0625 C 53.273438 89.28125 52.882812 89.5 52.492188 89.730469 C 52.132812 89.925781 51.796875 90.136719 51.464844 90.355469 C 50.351562 91.03125 50.351562 91.03125 49.632812 90.957031 C 48.714844 90.453125 47.8125 89.957031 46.921875 89.414062 C 46.5 89.175781 46.078125 88.914062 45.652344 88.671875 C 45.433594 88.535156 45.214844 88.417969 44.996094 88.28125 C 43.945312 87.65625 42.886719 87.050781 41.820312 86.441406 C 41.390625 86.191406 40.964844 85.953125 40.542969 85.703125 C 40.332031 85.585938 40.113281 85.464844 39.902344 85.328125 C 38.84375 84.71875 37.777344 84.105469 36.71875 83.496094 C 36.289062 83.25 35.878906 83.007812 35.449219 82.765625 C 32.910156 81.296875 30.371094 79.835938 27.832031 78.367188 C 27.515625 78.183594 27.515625 78.183594 27.195312 78.003906 C 26.773438 77.757812 26.351562 77.515625 25.925781 77.269531 C 24.863281 76.660156 23.789062 76.035156 22.730469 75.429688 C 20.644531 74.234375 18.570312 73.023438 16.488281 71.800781 C 16.308594 71.695312 16.128906 71.582031 15.933594 71.46875 C 15.773438 71.371094 15.601562 71.273438 15.429688 71.175781 C 15.210938 71.046875 15.210938 71.046875 14.992188 70.914062 C 14.648438 70.703125 14.648438 70.703125 14.453125 70.507812 C 14.429688 69.980469 14.414062 69.457031 14.414062 68.929688 C 14.414062 68.773438 14.40625 68.601562 14.40625 68.433594 C 14.40625 67.871094 14.394531 67.308594 14.394531 66.75 C 14.394531 66.347656 14.378906 65.941406 14.378906 65.542969 C 14.339844 61.867188 14.316406 58.203125 14.304688 54.53125 C 14.296875 51.816406 14.273438 49.097656 14.242188 46.386719 C 14.21875 44.480469 14.210938 42.578125 14.210938 40.664062 C 14.210938 39.527344 14.199219 38.394531 14.183594 37.246094 C 14.160156 36.171875 14.160156 35.105469 14.160156 34.03125 C 14.160156 33.632812 14.160156 33.242188 14.144531 32.851562 C 14.085938 30.429688 14.085938 30.429688 14.453125 29.492188 C 15.21875 28.695312 15.96875 28.34375 16.992188 27.929688 C 17.421875 27.6875 17.832031 27.441406 18.261719 27.195312 C 18.691406 26.953125 19.125 26.699219 19.570312 26.449219 C 20.058594 26.1875 20.53125 25.902344 21.019531 25.632812 C 21.132812 25.5625 21.25 25.488281 21.386719 25.414062 C 22.597656 24.730469 23.8125 24.023438 25.023438 23.324219 C 25.234375 23.203125 25.4375 23.085938 25.660156 22.964844 C 26.074219 22.714844 26.488281 22.484375 26.914062 22.242188 C 27.96875 21.632812 29.019531 21.019531 30.078125 20.410156 C 30.507812 20.164062 30.917969 19.921875 31.347656 19.679688 C 33.886719 18.210938 33.886719 18.210938 34.519531 17.847656 C 34.945312 17.601562 35.367188 17.359375 35.789062 17.113281 C 36.855469 16.503906 37.914062 15.894531 38.980469 15.273438 C 41.453125 13.851562 43.921875 12.417969 46.386719 10.984375 C 46.558594 10.878906 46.726562 10.78125 46.914062 10.667969 C 47.304688 10.433594 47.695312 10.203125 48.085938 9.960938 C 48.289062 9.839844 48.496094 9.707031 48.707031 9.570312 C 48.886719 9.457031 49.082031 9.335938 49.265625 9.21875 C 49.886719 8.945312 50.148438 8.960938 50.78125 9.179688 Z M 50.78125 9.179688 "/>
<path style=" stroke:none;fill-rule:nonzero;fill:rgb(10.196079%,10.196079%,10.196079%);fill-opacity:1;" d="M 50 8.984375 C 50.722656 9.277344 51.34375 9.554688 52.027344 9.9375 C 52.222656 10.058594 52.425781 10.171875 52.621094 10.277344 C 52.847656 10.398438 53.050781 10.523438 53.273438 10.644531 C 53.492188 10.765625 53.710938 10.890625 53.945312 11.019531 C 55.257812 11.765625 56.582031 12.523438 57.894531 13.304688 C 59.132812 14.039062 60.367188 14.746094 61.605469 15.46875 C 61.832031 15.585938 62.035156 15.707031 62.265625 15.84375 C 62.710938 16.097656 63.144531 16.359375 63.597656 16.617188 C 64.664062 17.226562 65.738281 17.847656 66.796875 18.457031 C 68.066406 19.1875 69.351562 19.921875 70.621094 20.664062 C 72.65625 21.835938 74.691406 23.023438 76.734375 24.203125 C 78.734375 25.375 80.761719 26.539062 82.773438 27.6875 C 82.992188 27.808594 83.21875 27.945312 83.445312 28.066406 C 83.640625 28.171875 83.828125 28.28125 84.03125 28.402344 C 84.203125 28.5 84.390625 28.597656 84.570312 28.710938 C 84.824219 28.824219 84.824219 28.824219 85.082031 28.921875 C 85.546875 29.296875 85.546875 29.296875 85.667969 30.003906 C 85.667969 30.3125 85.667969 30.613281 85.667969 30.917969 C 85.667969 31.175781 85.667969 31.175781 85.667969 31.429688 C 85.667969 31.992188 85.667969 32.566406 85.660156 33.128906 C 85.660156 33.535156 85.660156 33.9375 85.660156 34.335938 C 85.660156 35.433594 85.660156 36.539062 85.644531 37.636719 C 85.644531 38.785156 85.644531 39.925781 85.628906 41.074219 C 85.628906 43.261719 85.628906 45.433594 85.621094 47.605469 C 85.605469 50.082031 85.59375 52.5625 85.59375 55.03125 C 85.585938 60.132812 85.570312 65.21875 85.546875 70.3125 C 84.886719 70.058594 84.277344 69.773438 83.652344 69.417969 C 83.480469 69.320312 83.300781 69.222656 83.128906 69.125 C 82.933594 69.019531 82.753906 68.90625 82.558594 68.796875 C 82.265625 68.628906 82.265625 68.628906 81.957031 68.457031 C 80.371094 67.554688 78.785156 66.640625 77.207031 65.707031 C 75.699219 64.828125 74.179688 63.949219 72.65625 63.085938 C 70.75 61.996094 68.863281 60.914062 66.976562 59.804688 C 64.925781 58.609375 62.867188 57.421875 60.800781 56.226562 C 59.742188 55.617188 58.675781 55.003906 57.617188 54.394531 C 56.777344 53.90625 55.941406 53.433594 55.078125 52.929688 C 53.402344 51.96875 51.71875 51 50 50 C 50 36.464844 50 22.925781 50 8.984375 Z M 50 8.984375 "/>
<path style=" stroke:none;fill-rule:nonzero;fill:rgb(32.941177%,32.941177%,33.333334%);fill-opacity:1;" d="M 50 8.984375 C 50.058594 14.304688 50.113281 19.628906 50.136719 24.953125 C 50.148438 27.417969 50.15625 29.882812 50.195312 32.363281 C 50.21875 34.511719 50.234375 36.667969 50.242188 38.816406 C 50.242188 39.957031 50.242188 41.097656 50.269531 42.234375 C 50.277344 43.3125 50.292969 44.382812 50.292969 45.457031 C 50.292969 45.847656 50.292969 46.25 50.308594 46.640625 C 50.351562 49.0625 50.351562 49.0625 50 50 C 49.234375 50.796875 48.484375 51.148438 47.460938 51.5625 C 47.03125 51.804688 46.621094 52.050781 46.191406 52.296875 C 45.761719 52.539062 45.328125 52.792969 44.882812 53.042969 C 44.394531 53.304688 43.921875 53.589844 43.433594 53.859375 C 43.320312 53.929688 43.203125 54.003906 43.066406 54.078125 C 41.855469 54.761719 40.640625 55.46875 39.429688 56.167969 C 39.21875 56.289062 39.011719 56.40625 38.792969 56.527344 C 38.378906 56.777344 37.964844 57.007812 37.539062 57.25 C 36.484375 57.859375 35.433594 58.472656 34.375 59.082031 C 33.945312 59.328125 33.535156 59.570312 33.105469 59.8125 C 25.488281 64.210938 25.488281 64.210938 24.851562 64.574219 C 24.429688 64.820312 24.007812 65.0625 23.59375 65.308594 C 22.609375 65.867188 21.621094 66.445312 20.644531 67.007812 C 20.289062 67.203125 19.945312 67.40625 19.589844 67.601562 C 19.15625 67.855469 18.726562 68.105469 18.285156 68.359375 C 17.300781 68.929688 16.308594 69.507812 15.355469 70.140625 C 15.039062 70.3125 15.039062 70.3125 14.453125 70.3125 C 14.394531 65.015625 14.339844 59.71875 14.316406 54.433594 C 14.304688 51.96875 14.296875 49.511719 14.257812 47.046875 C 14.234375 44.90625 14.21875 42.757812 14.210938 40.625 C 14.210938 39.492188 14.210938 38.355469 14.183594 37.222656 C 14.175781 36.148438 14.160156 35.082031 14.160156 34.007812 C 14.160156 33.617188 14.160156 33.226562 14.144531 32.835938 C 14.101562 30.417969 14.101562 30.417969 14.453125 29.492188 C 15.21875 28.695312 15.96875 28.34375 16.992188 27.929688 C 17.421875 27.6875 17.832031 27.441406 18.261719 27.195312 C 18.691406 26.953125 19.125 26.699219 19.570312 26.449219 C 20.058594 26.1875 20.53125 25.902344 21.019531 25.632812 C 21.132812 25.5625 21.25 25.488281 21.386719 25.414062 C 22.597656 24.730469 23.8125 24.023438 25.023438 23.324219 C 25.234375 23.203125 25.4375 23.085938 25.660156 22.964844 C 26.074219 22.714844 26.488281 22.484375 26.914062 22.242188 C 27.96875 21.632812 29.019531 21.019531 30.078125 20.410156 C 30.507812 20.164062 30.917969 19.921875 31.347656 19.679688 C 33.886719 18.210938 33.886719 18.210938 34.519531 17.847656 C 34.945312 17.601562 35.367188 17.359375 35.789062 17.113281 C 36.855469 16.503906 37.914062 15.894531 38.980469 15.273438 C 41.453125 13.851562 43.921875 12.417969 46.386719 10.984375 C 46.640625 10.824219 46.640625 10.824219 46.914062 10.667969 C 47.3125 10.433594 47.703125 10.203125 48.105469 9.976562 C 48.324219 9.839844 48.535156 9.71875 48.753906 9.59375 C 48.949219 9.472656 49.144531 9.359375 49.355469 9.238281 C 49.804688 8.984375 49.804688 8.984375 50 8.984375 Z M 50 8.984375 "/>
<path style=" stroke:none;fill-rule:nonzero;fill:rgb(33.333334%,13.725491%,63.529414%);fill-opacity:1;" d="M 50 50 C 50 63.535156 50 77.074219 50 91.015625 C 48.453125 90.25 46.957031 89.46875 45.484375 88.589844 C 45.066406 88.339844 44.667969 88.101562 44.253906 87.867188 C 43.929688 87.671875 43.929688 87.671875 43.601562 87.484375 C 42.5625 86.867188 41.503906 86.269531 40.453125 85.660156 C 40.136719 85.472656 40.136719 85.472656 39.820312 85.292969 C 39.394531 85.042969 38.964844 84.789062 38.535156 84.546875 C 37.476562 83.9375 36.410156 83.324219 35.351562 82.714844 C 34.921875 82.46875 34.511719 82.226562 34.082031 81.984375 C 32.8125 81.25 32.8125 81.25 31.542969 80.515625 C 31.332031 80.394531 31.128906 80.273438 30.90625 80.152344 C 30.484375 79.90625 30.0625 79.664062 29.636719 79.417969 C 28.574219 78.808594 27.515625 78.199219 26.449219 77.578125 C 23.789062 76.050781 21.140625 74.511719 18.507812 72.972656 C 17.984375 72.671875 17.464844 72.363281 16.945312 72.070312 C 16.640625 71.890625 16.332031 71.71875 16.03125 71.53125 C 15.894531 71.445312 15.746094 71.371094 15.609375 71.289062 C 14.671875 70.75 14.671875 70.75 14.453125 70.3125 C 14.589844 70.238281 14.707031 70.164062 14.84375 70.09375 C 16.136719 69.394531 17.421875 68.691406 18.691406 67.96875 C 18.984375 67.8125 18.984375 67.8125 19.277344 67.636719 C 20.839844 66.75 22.402344 65.84375 23.964844 64.925781 C 25.472656 64.046875 26.992188 63.167969 28.515625 62.304688 C 30.417969 61.214844 32.308594 60.132812 34.195312 59.023438 C 36.246094 57.828125 38.304688 56.640625 40.371094 55.453125 C 41.25 54.941406 42.113281 54.445312 42.992188 53.945312 C 43.417969 53.6875 43.847656 53.441406 44.277344 53.199219 C 45.261719 52.621094 46.25 52.066406 47.226562 51.488281 C 47.402344 51.390625 47.582031 51.285156 47.753906 51.1875 C 48.085938 50.992188 48.398438 50.804688 48.730469 50.609375 C 49.78125 50 49.78125 50 50 50 Z M 50 50 "/>
<path style=" stroke:none;fill-rule:nonzero;fill:rgb(17.254902%,17.254902%,17.254902%);fill-opacity:1;" d="M 50 8.984375 C 50.722656 9.277344 51.34375 9.554688 52.027344 9.9375 C 52.222656 10.058594 52.425781 10.171875 52.621094 10.277344 C 52.847656 10.398438 53.050781 10.523438 53.273438 10.644531 C 53.492188 10.765625 53.710938 10.890625 53.945312 11.019531 C 55.257812 11.765625 56.582031 12.523438 57.894531 13.304688 C 59.132812 14.039062 60.367188 14.746094 61.605469 15.46875 C 61.832031 15.585938 62.035156 15.707031 62.265625 15.84375 C 62.710938 16.097656 63.144531 16.359375 63.597656 16.617188 C 64.664062 17.226562 65.738281 17.847656 66.796875 18.457031 C 68.066406 19.1875 69.351562 19.921875 70.621094 20.664062 C 72.851562 21.949219 75.074219 23.242188 77.296875 24.535156 C 79.125 25.609375 80.972656 26.660156 82.8125 27.710938 C 83.03125 27.832031 83.25 27.953125 83.480469 28.085938 C 83.675781 28.199219 83.871094 28.304688 84.082031 28.417969 C 84.449219 28.636719 84.804688 28.867188 85.15625 29.101562 C 85.15625 29.296875 85.15625 29.492188 85.15625 29.6875 C 84.945312 29.808594 84.945312 29.808594 84.726562 29.929688 C 81.566406 31.738281 78.394531 33.554688 75.234375 35.375 C 74.179688 35.984375 73.128906 36.597656 72.070312 37.207031 C 71.640625 37.449219 71.230469 37.695312 70.800781 37.9375 C 63.183594 42.332031 63.183594 42.332031 62.546875 42.699219 C 62.125 42.945312 61.703125 43.1875 61.28125 43.433594 C 60.203125 44.058594 59.132812 44.667969 58.054688 45.289062 C 57.835938 45.410156 57.632812 45.546875 57.398438 45.664062 C 56.972656 45.921875 56.542969 46.167969 56.113281 46.410156 C 55.125 46.972656 54.148438 47.542969 53.164062 48.121094 C 52.988281 48.21875 52.816406 48.324219 52.636719 48.421875 C 52.320312 48.617188 52 48.804688 51.683594 49 C 50.632812 49.609375 50.632812 49.609375 50.195312 49.609375 C 50.097656 49.804688 50.097656 49.804688 50 50 C 50 36.464844 50 22.925781 50 8.984375 Z M 50 8.984375 "/>
<path style=" stroke:none;fill-rule:nonzero;fill:rgb(26.666668%,26.666668%,26.666668%);fill-opacity:1;" d="M 50 8.984375 C 50 22.460938 50 35.921875 50 49.804688 C 47.800781 48.707031 47.800781 48.707031 47.011719 48.242188 C 46.824219 48.128906 46.65625 48.023438 46.46875 47.925781 C 46.273438 47.800781 46.09375 47.695312 45.898438 47.582031 C 45.484375 47.339844 45.066406 47.09375 44.652344 46.851562 C 44.433594 46.726562 44.222656 46.605469 44.003906 46.46875 C 42.953125 45.859375 41.894531 45.253906 40.84375 44.644531 C 40.640625 44.515625 40.414062 44.394531 40.210938 44.277344 C 39.785156 44.027344 39.355469 43.773438 38.925781 43.53125 C 37.867188 42.917969 36.800781 42.308594 35.742188 41.699219 C 35.3125 41.453125 34.902344 41.210938 34.472656 40.964844 C 31.933594 39.5 29.394531 38.035156 26.855469 36.570312 C 26.539062 36.386719 26.539062 36.386719 26.21875 36.207031 C 25.796875 35.960938 25.375 35.71875 24.953125 35.472656 C 23.875 34.847656 22.792969 34.226562 21.703125 33.609375 C 20.644531 32.992188 19.578125 32.382812 18.515625 31.761719 C 18.015625 31.46875 17.503906 31.175781 17.007812 30.898438 C 16.722656 30.738281 16.453125 30.582031 16.1875 30.417969 C 16.0625 30.347656 15.941406 30.289062 15.820312 30.214844 C 15.503906 30.027344 15.503906 30.027344 15.039062 29.6875 C 15.039062 29.492188 15.039062 29.296875 15.039062 29.101562 C 15.390625 28.832031 15.390625 28.832031 15.878906 28.554688 C 16.074219 28.441406 16.257812 28.335938 16.445312 28.222656 C 16.648438 28.109375 16.855469 28.003906 17.066406 27.878906 C 17.269531 27.757812 17.496094 27.636719 17.699219 27.515625 C 18.148438 27.261719 18.601562 27 19.042969 26.757812 C 19.90625 26.269531 20.761719 25.765625 21.621094 25.277344 C 22.25 24.917969 22.890625 24.550781 23.519531 24.179688 C 24.789062 23.4375 26.074219 22.703125 27.34375 21.972656 C 27.773438 21.726562 28.183594 21.484375 28.613281 21.242188 C 28.824219 21.117188 29.027344 20.996094 29.25 20.875 C 36.230469 16.84375 36.230469 16.84375 36.863281 16.480469 C 37.289062 16.234375 37.710938 15.992188 38.132812 15.746094 C 39.199219 15.136719 40.257812 14.527344 41.324219 13.90625 C 41.75 13.65625 42.171875 13.417969 42.601562 13.167969 C 42.8125 13.046875 43.015625 12.929688 43.222656 12.808594 C 44.3125 12.183594 45.394531 11.5625 46.46875 10.921875 C 46.695312 10.800781 46.914062 10.667969 47.128906 10.546875 C 47.542969 10.300781 47.964844 10.058594 48.378906 9.804688 C 48.558594 9.707031 48.746094 9.59375 48.941406 9.488281 C 49.179688 9.335938 49.179688 9.335938 49.4375 9.195312 C 49.804688 8.984375 49.804688 8.984375 50 8.984375 Z M 50 8.984375 "/>
</g>
</svg>
