<?xml version="1.0" encoding="UTF-8"?> <svg xmlns="http://www.w3.org/2000/svg" id="Layer_1" data-name="Layer 1" viewBox="0 0 1433 420"><defs><style>.cls-1{font-size:222px;fill:#fff;font-family:Blinker-SemiBold, Blinker;font-weight:600;}.cls-2,.cls-3{font-family:Blinker-Regular, Blinker;font-weight:400;}.cls-3{letter-spacing:-0.01em;}.cls-4{fill:#2c2c2c;}.cls-10,.cls-4,.cls-5,.cls-6,.cls-7,.cls-8,.cls-9{fill-rule:evenodd;}.cls-5{fill:#1f548b;}.cls-6{fill:#444;}.cls-7{fill:#1a1a1a;}.cls-8{fill:#2f1160;}.cls-9{fill:#555;}.cls-10{fill:#5623a3;}</style></defs><text class="cls-1" transform="translate(416.79 282.89)">Priv<tspan class="cls-2" x="365.18" y="0">Secu</tspan><tspan class="cls-3" x="804.52" y="0">r</tspan><tspan class="cls-2" x="880" y="0">e</tspan></text><polygon class="cls-4" points="209 17.79 377.3 114.96 209 212.13 209 114.96 209 17.79"></polygon><polygon class="cls-5" points="41 114.96 41 309.3 209.3 212.13 125.15 163.54 41 114.96"></polygon><polygon class="cls-6" points="40.7 115.13 209 212.3 209 17.96 124.85 66.54 40.7 115.13"></polygon><polygon class="cls-7" points="208.69 211.31 377 114.14 377 308.48 292.85 259.89 208.69 211.31"></polygon><polygon class="cls-8" points="377.31 308.81 209 211.63 209 405.98 293.15 357.39 377.31 308.81"></polygon><polygon class="cls-9" points="41 308.66 41 114.32 209.3 211.49 125.15 260.07 41 308.66"></polygon><polygon class="cls-10" points="209 211.81 40.7 308.98 209 406.15 209 308.98 209 211.81"></polygon></svg> 